# 3ds Max Wavefront OBJ Exporter v0.97b - (c)2007 guruware
# File Created: 20.12.2019 17:40:10

mtllib Basketball net.mtl

#
# object Basket_ball_net
#

v  15.8482 -27.3386 0.0000
v  15.0725 -27.3386 -4.8974
v  15.0060 -18.0360 -4.8757
v  15.7782 -18.0360 0.0000
v  12.8214 -27.3386 -9.3153
v  12.7648 -18.0360 -9.2742
v  9.3153 -27.3386 -12.8214
v  9.2742 -18.0360 -12.7648
v  4.8974 -27.3386 -15.0725
v  4.8757 -18.0360 -15.0060
v  -0.0000 -27.3386 -15.8482
v  -0.0000 -18.0360 -15.7782
v  -4.8974 -27.3386 -15.0725
v  -4.8757 -18.0360 -15.0060
v  -9.3153 -27.3386 -12.8214
v  -9.2742 -18.0360 -12.7648
v  -12.8214 -27.3386 -9.3153
v  -12.7648 -18.0360 -9.2742
v  -15.0725 -27.3386 -4.8974
v  -15.0060 -18.0360 -4.8757
v  -15.8482 -27.3386 0.0000
v  -15.7782 -18.0360 0.0000
v  -15.0725 -27.3386 4.8974
v  -15.0060 -18.0360 4.8757
v  -12.8214 -27.3386 9.3153
v  -12.7648 -18.0360 9.2742
v  -9.3153 -27.3386 12.8215
v  -9.2742 -18.0360 12.7648
v  -4.8973 -27.3386 15.0725
v  -4.8757 -18.0360 15.0060
v  0.0000 -27.3386 15.8482
v  0.0000 -18.0360 15.7782
v  4.8974 -27.3386 15.0725
v  4.8757 -18.0360 15.0060
v  9.3153 -27.3386 12.8214
v  9.2742 -18.0360 12.7648
v  12.8215 -27.3386 9.3153
v  12.7648 -18.0360 9.2742
v  15.0725 -27.3386 4.8973
v  15.0060 -18.0360 4.8757
v  17.7282 9.8715 0.0000
v  16.8605 9.8715 -5.4783
v  17.6103 14.1391 -5.7219
v  18.5166 14.1391 0.0000
v  14.3424 9.8715 -10.4204
v  14.9802 14.1391 -10.8838
v  10.4204 9.8715 -14.3424
v  10.8838 14.1391 -14.9802
v  5.4783 9.8715 -16.8605
v  5.7219 14.1391 -17.6103
v  -0.0000 9.8715 -17.7282
v  -0.0000 14.1391 -18.5166
v  -5.4783 9.8715 -16.8605
v  -5.7219 14.1391 -17.6103
v  -10.4204 9.8715 -14.3424
v  -10.8838 14.1391 -14.9802
v  -14.3424 9.8715 -10.4204
v  -14.9802 14.1391 -10.8838
v  -16.8605 9.8715 -5.4783
v  -17.6103 14.1391 -5.7219
v  -17.7282 9.8715 0.0000
v  -18.5166 14.1391 0.0000
v  -16.8605 9.8715 5.4783
v  -17.6103 14.1391 5.7219
v  -14.3424 9.8715 10.4204
v  -14.9802 14.1391 10.8838
v  -10.4204 9.8715 14.3424
v  -10.8838 14.1391 14.9802
v  -5.4783 9.8715 16.8605
v  -5.7219 14.1391 17.6103
v  0.0000 9.8715 17.7282
v  0.0000 14.1391 18.5166
v  5.4783 9.8715 16.8605
v  5.7219 14.1391 17.6103
v  10.4204 9.8715 14.3424
v  10.8838 14.1391 14.9802
v  14.3424 9.8715 10.4204
v  14.9802 14.1391 10.8837
v  16.8605 9.8715 5.4783
v  17.6103 14.1391 5.7219
v  18.7008 18.4066 -6.0763
v  19.7914 22.6741 -6.4306
v  20.8099 22.6741 0.0000
v  19.6632 18.4066 0.0000
v  15.9079 18.4066 -11.5578
v  16.8356 22.6741 -12.2318
v  11.5578 18.4066 -15.9079
v  12.2318 22.6741 -16.8356
v  6.0763 18.4066 -18.7009
v  6.4306 22.6741 -19.7914
v  -0.0000 18.4066 -19.6632
v  -0.0000 22.6741 -20.8099
v  -6.0763 18.4066 -18.7009
v  -6.4306 22.6741 -19.7914
v  -11.5578 18.4066 -15.9079
v  -12.2318 22.6741 -16.8356
v  -15.9079 18.4066 -11.5578
v  -16.8356 22.6741 -12.2318
v  -18.7009 18.4066 -6.0763
v  -19.7914 22.6741 -6.4306
v  -19.6632 18.4066 0.0000
v  -20.8099 22.6741 0.0000
v  -18.7009 18.4066 6.0763
v  -19.7914 22.6741 6.4306
v  -15.9079 18.4066 11.5578
v  -16.8356 22.6741 12.2318
v  -11.5578 18.4066 15.9079
v  -12.2318 22.6741 16.8356
v  -6.0763 18.4066 18.7009
v  -6.4306 22.6741 19.7914
v  0.0000 18.4066 19.6632
v  0.0000 22.6741 20.8099
v  6.0763 18.4066 18.7008
v  6.4306 22.6741 19.7914
v  11.5578 18.4066 15.9079
v  12.2318 22.6741 16.8356
v  15.9079 18.4066 11.5577
v  16.8356 22.6741 12.2317
v  18.7009 18.4066 6.0763
v  19.7914 22.6741 6.4306
v  21.2649 26.9416 -6.9094
v  22.3592 26.9416 0.0000
v  18.0890 26.9416 -13.1424
v  13.1424 26.9416 -18.0890
v  6.9094 26.9416 -21.2649
v  -0.0000 26.9416 -22.3592
v  -6.9094 26.9416 -21.2649
v  -13.1424 26.9416 -18.0890
v  -18.0890 26.9416 -13.1424
v  -21.2649 26.9416 -6.9094
v  -22.3593 26.9416 0.0000
v  -21.2649 26.9416 6.9094
v  -18.0890 26.9416 13.1425
v  -13.1424 26.9416 18.0890
v  -6.9094 26.9416 21.2649
v  0.0000 26.9416 22.3592
v  6.9094 26.9416 21.2649
v  13.1425 26.9416 18.0890
v  18.0890 26.9416 13.1424
v  21.2649 26.9416 6.9094
v  15.2298 -8.7335 -4.9485
v  15.7406 0.5690 -5.1144
v  16.5506 0.5690 0.0000
v  16.0135 -8.7335 0.0000
v  12.9552 -8.7335 -9.4125
v  13.3897 0.5690 -9.7282
v  9.4125 -8.7335 -12.9552
v  9.7282 0.5690 -13.3897
v  4.9484 -8.7335 -15.2298
v  5.1144 0.5690 -15.7406
v  -0.0000 -8.7335 -16.0135
v  -0.0000 0.5690 -16.5506
v  -4.9485 -8.7335 -15.2298
v  -5.1144 0.5690 -15.7406
v  -9.4125 -8.7335 -12.9552
v  -9.7282 0.5690 -13.3897
v  -12.9552 -8.7335 -9.4125
v  -13.3897 0.5690 -9.7282
v  -15.2298 -8.7335 -4.9484
v  -15.7406 0.5690 -5.1144
v  -16.0135 -8.7335 0.0000
v  -16.5506 0.5690 0.0000
v  -15.2298 -8.7335 4.9485
v  -15.7406 0.5690 5.1144
v  -12.9552 -8.7335 9.4125
v  -13.3897 0.5690 9.7282
v  -9.4125 -8.7335 12.9552
v  -9.7282 0.5690 13.3897
v  -4.9484 -8.7335 15.2298
v  -5.1144 0.5690 15.7406
v  0.0000 -8.7335 16.0135
v  0.0000 0.5690 16.5506
v  4.9485 -8.7335 15.2298
v  5.1144 0.5690 15.7406
v  9.4125 -8.7335 12.9552
v  9.7282 0.5690 13.3897
v  12.9552 -8.7335 9.4125
v  13.3897 0.5690 9.7282
v  15.2298 -8.7335 4.9484
v  15.7406 0.5690 5.1144
# 180 vertices

vn 1.0000 0.0075 -0.0000
vn 0.9510 0.0075 -0.3090
vn 0.9510 -0.0089 -0.3090
vn 1.0000 -0.0089 -0.0000
vn 0.8090 0.0075 -0.5878
vn 0.8090 -0.0089 -0.5878
vn 0.5878 0.0075 -0.8090
vn 0.5878 -0.0089 -0.8090
vn 0.3090 0.0075 -0.9510
vn 0.3090 -0.0089 -0.9510
vn -0.0000 0.0075 -1.0000
vn -0.0000 -0.0089 -1.0000
vn -0.3090 0.0075 -0.9510
vn -0.3090 -0.0089 -0.9510
vn -0.5878 0.0075 -0.8090
vn -0.5878 -0.0089 -0.8090
vn -0.8090 0.0075 -0.5878
vn -0.8090 -0.0089 -0.5878
vn -0.9510 0.0075 -0.3090
vn -0.9510 -0.0089 -0.3090
vn -1.0000 0.0075 0.0000
vn -1.0000 -0.0089 0.0000
vn -0.9510 0.0075 0.3090
vn -0.9510 -0.0089 0.3090
vn -0.8090 0.0075 0.5878
vn -0.8090 -0.0089 0.5878
vn -0.5878 0.0075 0.8090
vn -0.5878 -0.0089 0.8090
vn -0.3090 0.0075 0.9510
vn -0.3090 -0.0089 0.9510
vn 0.0000 0.0075 1.0000
vn 0.0000 -0.0089 1.0000
vn 0.3090 0.0075 0.9510
vn 0.3090 -0.0089 0.9510
vn 0.5878 0.0075 0.8090
vn 0.5878 -0.0089 0.8090
vn 0.8090 0.0075 0.5878
vn 0.8090 -0.0089 0.5878
vn 0.9510 0.0075 0.3090
vn 0.9510 -0.0089 0.3090
vn 0.9881 -0.1541 -0.0000
vn 0.9397 -0.1541 -0.3053
vn 0.9274 -0.2216 -0.3013
vn 0.9751 -0.2216 -0.0000
vn 0.7994 -0.1541 -0.5808
vn 0.7889 -0.2216 -0.5732
vn 0.5808 -0.1541 -0.7994
vn 0.5732 -0.2216 -0.7889
vn 0.3053 -0.1541 -0.9397
vn 0.3013 -0.2216 -0.9274
vn -0.0000 -0.1541 -0.9881
vn -0.0000 -0.2216 -0.9751
vn -0.3053 -0.1541 -0.9397
vn -0.3013 -0.2216 -0.9274
vn -0.5808 -0.1541 -0.7994
vn -0.5732 -0.2216 -0.7889
vn -0.7994 -0.1541 -0.5808
vn -0.7889 -0.2216 -0.5732
vn -0.9397 -0.1541 -0.3053
vn -0.9274 -0.2216 -0.3013
vn -0.9881 -0.1541 0.0000
vn -0.9751 -0.2216 0.0000
vn -0.9397 -0.1541 0.3053
vn -0.9274 -0.2216 0.3013
vn -0.7994 -0.1541 0.5808
vn -0.7889 -0.2216 0.5732
vn -0.5808 -0.1541 0.7994
vn -0.5732 -0.2216 0.7889
vn -0.3053 -0.1541 0.9397
vn -0.3013 -0.2216 0.9274
vn 0.0000 -0.1541 0.9881
vn 0.0000 -0.2216 0.9751
vn 0.3053 -0.1541 0.9397
vn 0.3013 -0.2216 0.9274
vn 0.5808 -0.1541 0.7994
vn 0.5732 -0.2216 0.7889
vn 0.7994 -0.1541 0.5808
vn 0.7889 -0.2216 0.5732
vn 0.9397 -0.1541 0.3053
vn 0.9274 -0.2216 0.3013
vn 0.9185 -0.2595 -0.2984
vn 0.9067 -0.3019 -0.2946
vn 0.9533 -0.3019 -0.0000
vn 0.9657 -0.2595 -0.0000
vn 0.7813 -0.2595 -0.5677
vn 0.7713 -0.3019 -0.5604
vn 0.5677 -0.2595 -0.7813
vn 0.5604 -0.3019 -0.7713
vn 0.2984 -0.2595 -0.9185
vn 0.2946 -0.3019 -0.9067
vn -0.0000 -0.2595 -0.9657
vn -0.0000 -0.3019 -0.9533
vn -0.2984 -0.2595 -0.9185
vn -0.2946 -0.3019 -0.9067
vn -0.5677 -0.2595 -0.7813
vn -0.5604 -0.3019 -0.7713
vn -0.7813 -0.2595 -0.5677
vn -0.7713 -0.3019 -0.5604
vn -0.9185 -0.2595 -0.2984
vn -0.9067 -0.3019 -0.2946
vn -0.9657 -0.2595 0.0000
vn -0.9533 -0.3019 0.0000
vn -0.9185 -0.2595 0.2984
vn -0.9067 -0.3019 0.2946
vn -0.7813 -0.2595 0.5677
vn -0.7713 -0.3019 0.5604
vn -0.5677 -0.2595 0.7813
vn -0.5604 -0.3019 0.7713
vn -0.2984 -0.2595 0.9185
vn -0.2946 -0.3019 0.9067
vn 0.0000 -0.2595 0.9657
vn 0.0000 -0.3019 0.9533
vn 0.2984 -0.2595 0.9185
vn 0.2946 -0.3019 0.9067
vn 0.5677 -0.2595 0.7813
vn 0.5604 -0.3019 0.7713
vn 0.7813 -0.2595 0.5676
vn 0.7713 -0.3019 0.5604
vn 0.9185 -0.2595 0.2984
vn 0.9067 -0.3019 0.2946
vn 0.8940 -0.3413 -0.2905
vn 0.9400 -0.3413 -0.0000
vn 0.7605 -0.3413 -0.5525
vn 0.5525 -0.3413 -0.7605
vn 0.2905 -0.3413 -0.8940
vn -0.0000 -0.3413 -0.9400
vn -0.2905 -0.3413 -0.8940
vn -0.5525 -0.3413 -0.7605
vn -0.7605 -0.3413 -0.5525
vn -0.8940 -0.3413 -0.2905
vn -0.9400 -0.3413 0.0000
vn -0.8940 -0.3413 0.2905
vn -0.7605 -0.3413 0.5525
vn -0.5525 -0.3413 0.7605
vn -0.2905 -0.3413 0.8940
vn 0.0000 -0.3413 0.9400
vn 0.2905 -0.3413 0.8940
vn 0.5525 -0.3413 0.7605
vn 0.7605 -0.3413 0.5525
vn 0.8940 -0.3413 0.2905
vn 0.9502 -0.0415 -0.3088
vn 0.9470 -0.0920 -0.3077
vn 0.9958 -0.0920 -0.0000
vn 0.9991 -0.0415 -0.0000
vn 0.8083 -0.0415 -0.5873
vn 0.8056 -0.0920 -0.5853
vn 0.5873 -0.0415 -0.8083
vn 0.5853 -0.0920 -0.8056
vn 0.3088 -0.0415 -0.9502
vn 0.3077 -0.0920 -0.9470
vn -0.0000 -0.0415 -0.9991
vn -0.0000 -0.0920 -0.9958
vn -0.3088 -0.0415 -0.9502
vn -0.3077 -0.0920 -0.9470
vn -0.5873 -0.0415 -0.8083
vn -0.5853 -0.0920 -0.8056
vn -0.8083 -0.0415 -0.5873
vn -0.8056 -0.0920 -0.5853
vn -0.9502 -0.0415 -0.3088
vn -0.9470 -0.0920 -0.3077
vn -0.9991 -0.0415 0.0000
vn -0.9958 -0.0920 0.0000
vn -0.9502 -0.0415 0.3088
vn -0.9470 -0.0920 0.3077
vn -0.8083 -0.0415 0.5873
vn -0.8056 -0.0920 0.5853
vn -0.5873 -0.0415 0.8083
vn -0.5853 -0.0920 0.8056
vn -0.3087 -0.0415 0.9502
vn -0.3077 -0.0920 0.9470
vn 0.0000 -0.0415 0.9991
vn 0.0000 -0.0920 0.9958
vn 0.3088 -0.0415 0.9502
vn 0.3077 -0.0920 0.9470
vn 0.5873 -0.0415 0.8083
vn 0.5853 -0.0920 0.8056
vn 0.8083 -0.0415 0.5873
vn 0.8056 -0.0920 0.5853
vn 0.9502 -0.0415 0.3087
vn 0.9470 -0.0920 0.3077
# 180 vertex normals

vt 0.5646 0.7638 0.0000
vt 0.5306 0.7613 0.0000
vt 0.5343 0.6911 0.0000
vt 0.5707 0.6937 0.0000
vt 0.4967 0.7602 0.0000
vt 0.4978 0.6899 0.0000
vt 0.4627 0.7603 0.0000
vt 0.4613 0.6900 0.0000
vt 0.4288 0.7617 0.0000
vt 0.4248 0.6915 0.0000
vt 0.3948 0.7643 0.0000
vt 0.3883 0.6943 0.0000
vt 0.3609 0.7682 0.0000
vt 0.3520 0.6984 0.0000
vt 0.3270 0.7733 0.0000
vt 0.3158 0.7039 0.0000
vt 0.2931 0.7797 0.0000
vt 0.2797 0.7107 0.0000
vt 0.2591 0.7872 0.0000
vt 0.2438 0.7186 0.0000
vt 0.2249 0.7958 0.0000
vt 0.2079 0.7276 0.0000
vt 0.1900 0.8055 0.0000
vt 0.1721 0.7376 0.0000
vt 0.1540 0.8152 0.0000
vt 0.1361 0.7474 0.0000
vt 0.8406 0.8243 0.0000
vt 0.8047 0.8145 0.0000
vt 0.8225 0.7466 0.0000
vt 0.8584 0.7567 0.0000
vt 0.7693 0.8044 0.0000
vt 0.7868 0.7363 0.0000
vt 0.7346 0.7948 0.0000
vt 0.7511 0.7264 0.0000
vt 0.7003 0.7862 0.0000
vt 0.7153 0.7174 0.0000
vt 0.6663 0.7787 0.0000
vt 0.6794 0.7096 0.0000
vt 0.6323 0.7724 0.0000
vt 0.6433 0.7030 0.0000
vt 0.5985 0.7675 0.0000
vt 0.6070 0.6977 0.0000
vt 0.5889 0.4823 0.0000
vt 0.5449 0.4793 0.0000
vt 0.5466 0.4462 0.0000
vt 0.5918 0.4493 0.0000
vt 0.5009 0.4778 0.0000
vt 0.5014 0.4447 0.0000
vt 0.4568 0.4780 0.0000
vt 0.4561 0.4449 0.0000
vt 0.4128 0.4797 0.0000
vt 0.4108 0.4466 0.0000
vt 0.3689 0.4829 0.0000
vt 0.3657 0.4499 0.0000
vt 0.3252 0.4877 0.0000
vt 0.3207 0.4548 0.0000
vt 0.2818 0.4941 0.0000
vt 0.2760 0.4613 0.0000
vt 0.2388 0.5020 0.0000
vt 0.2317 0.4695 0.0000
vt 0.1964 0.5114 0.0000
vt 0.1878 0.4794 0.0000
vt 0.1548 0.5223 0.0000
vt 0.1447 0.4905 0.0000
vt 0.1144 0.5350 0.0000
vt 0.1028 0.5046 0.0000
vt 0.0751 0.5497 0.0000
vt 0.0623 0.5216 0.0000
vt 0.9240 0.5623 0.0000
vt 0.8851 0.5463 0.0000
vt 0.8977 0.5165 0.0000
vt 0.9376 0.5349 0.0000
vt 0.8450 0.5324 0.0000
vt 0.8562 0.5012 0.0000
vt 0.8039 0.5202 0.0000
vt 0.8136 0.4882 0.0000
vt 0.7620 0.5095 0.0000
vt 0.7701 0.4772 0.0000
vt 0.7193 0.5005 0.0000
vt 0.7261 0.4678 0.0000
vt 0.6762 0.4929 0.0000
vt 0.6816 0.4601 0.0000
vt 0.6327 0.4868 0.0000
vt 0.6368 0.4539 0.0000
vt 0.5484 0.4126 0.0000
vt 0.5501 0.3790 0.0000
vt 0.5977 0.3822 0.0000
vt 0.5948 0.4157 0.0000
vt 0.5019 0.4111 0.0000
vt 0.5024 0.3775 0.0000
vt 0.4553 0.4112 0.0000
vt 0.4546 0.3776 0.0000
vt 0.4089 0.4130 0.0000
vt 0.4069 0.3794 0.0000
vt 0.3624 0.4163 0.0000
vt 0.3592 0.3829 0.0000
vt 0.3162 0.4214 0.0000
vt 0.3117 0.3880 0.0000
vt 0.2701 0.4281 0.0000
vt 0.2642 0.3949 0.0000
vt 0.2242 0.4365 0.0000
vt 0.2169 0.4036 0.0000
vt 0.1788 0.4469 0.0000
vt 0.1698 0.4145 0.0000
vt 0.1337 0.4586 0.0000
vt 0.1227 0.4268 0.0000
vt 0.0899 0.4739 0.0000
vt 0.0766 0.4433 0.0000
vt 0.0476 0.4930 0.0000
vt 0.0321 0.4642 0.0000
vt 0.9116 0.4865 0.0000
vt 0.9260 0.4565 0.0000
vt 0.9698 0.4788 0.0000
vt 0.9533 0.5070 0.0000
vt 0.8682 0.4698 0.0000
vt 0.8804 0.4385 0.0000
vt 0.8238 0.4560 0.0000
vt 0.8340 0.4238 0.0000
vt 0.7787 0.4444 0.0000
vt 0.7871 0.4117 0.0000
vt 0.7331 0.4347 0.0000
vt 0.7400 0.4017 0.0000
vt 0.6872 0.4267 0.0000
vt 0.6927 0.3935 0.0000
vt 0.6411 0.4204 0.0000
vt 0.6453 0.3870 0.0000
vt 0.5518 0.3447 0.0000
vt 0.6006 0.3480 0.0000
vt 0.5029 0.3431 0.0000
vt 0.4539 0.3433 0.0000
vt 0.4050 0.3451 0.0000
vt 0.3561 0.3487 0.0000
vt 0.3072 0.3540 0.0000
vt 0.2584 0.3610 0.0000
vt 0.2097 0.3700 0.0000
vt 0.1611 0.3812 0.0000
vt 0.1120 0.3941 0.0000
vt 0.0631 0.4117 0.0000
vt 0.0156 0.4343 0.0000
vt 0.9406 0.4254 0.0000
vt 0.9873 0.4495 0.0000
vt 0.8925 0.4063 0.0000
vt 0.8439 0.3909 0.0000
vt 0.7953 0.3783 0.0000
vt 0.7467 0.3680 0.0000
vt 0.6981 0.3596 0.0000
vt 0.6494 0.3529 0.0000
vt 0.5378 0.6208 0.0000
vt 0.5413 0.5503 0.0000
vt 0.5827 0.5532 0.0000
vt 0.5766 0.6236 0.0000
vt 0.4988 0.6195 0.0000
vt 0.4998 0.5489 0.0000
vt 0.4598 0.6196 0.0000
vt 0.4583 0.5491 0.0000
vt 0.4209 0.6212 0.0000
vt 0.4169 0.5507 0.0000
vt 0.3820 0.6241 0.0000
vt 0.3756 0.5538 0.0000
vt 0.3434 0.6285 0.0000
vt 0.3345 0.5584 0.0000
vt 0.3049 0.6343 0.0000
vt 0.2937 0.5644 0.0000
vt 0.2668 0.6414 0.0000
vt 0.2534 0.5718 0.0000
vt 0.2290 0.6497 0.0000
vt 0.2136 0.5806 0.0000
vt 0.1915 0.6592 0.0000
vt 0.1746 0.5907 0.0000
vt 0.1545 0.6698 0.0000
vt 0.1367 0.6019 0.0000
vt 0.1178 0.6799 0.0000
vt 0.0994 0.6137 0.0000
vt 0.8405 0.6790 0.0000
vt 0.8609 0.6123 0.0000
vt 0.8978 0.6254 0.0000
vt 0.8768 0.6901 0.0000
vt 0.8041 0.6680 0.0000
vt 0.8232 0.6000 0.0000
vt 0.7672 0.6577 0.0000
vt 0.7846 0.5889 0.0000
vt 0.7299 0.6483 0.0000
vt 0.7453 0.5791 0.0000
vt 0.6921 0.6401 0.0000
vt 0.7053 0.5705 0.0000
vt 0.6539 0.6332 0.0000
vt 0.6648 0.5633 0.0000
vt 0.6154 0.6277 0.0000
vt 0.6239 0.5575 0.0000
# 189 texture coords

g Basket_ball_net
usemtl net
s 1
f 1/1/1 2/2/2 3/3/3 4/4/4 
f 2/2/2 5/5/5 6/6/6 3/3/3 
f 5/5/5 7/7/7 8/8/8 6/6/6 
f 7/7/7 9/9/9 10/10/10 8/8/8 
f 9/9/9 11/11/11 12/12/12 10/10/10 
f 11/11/11 13/13/13 14/14/14 12/12/12 
f 13/13/13 15/15/15 16/16/16 14/14/14 
f 15/15/15 17/17/17 18/18/18 16/16/16 
f 17/17/17 19/19/19 20/20/20 18/18/18 
f 19/19/19 21/21/21 22/22/22 20/20/20 
f 21/21/21 23/23/23 24/24/24 22/22/22 
f 23/23/23 25/25/25 26/26/26 24/24/24 
f 25/27/25 27/28/27 28/29/28 26/30/26 
f 27/28/27 29/31/29 30/32/30 28/29/28 
f 29/31/29 31/33/31 32/34/32 30/32/30 
f 31/33/31 33/35/33 34/36/34 32/34/32 
f 33/35/33 35/37/35 36/38/36 34/36/34 
f 35/37/35 37/39/37 38/40/38 36/38/36 
f 37/39/37 39/41/39 40/42/40 38/40/38 
f 39/41/39 1/1/1 4/4/4 40/42/40 
f 41/43/41 42/44/42 43/45/43 44/46/44 
f 42/44/42 45/47/45 46/48/46 43/45/43 
f 45/47/45 47/49/47 48/50/48 46/48/46 
f 47/49/47 49/51/49 50/52/50 48/50/48 
f 49/51/49 51/53/51 52/54/52 50/52/50 
f 51/53/51 53/55/53 54/56/54 52/54/52 
f 53/55/53 55/57/55 56/58/56 54/56/54 
f 55/57/55 57/59/57 58/60/58 56/58/56 
f 57/59/57 59/61/59 60/62/60 58/60/58 
f 59/61/59 61/63/61 62/64/62 60/62/60 
f 61/63/61 63/65/63 64/66/64 62/64/62 
f 63/65/63 65/67/65 66/68/66 64/66/64 
f 65/69/65 67/70/67 68/71/68 66/72/66 
f 67/70/67 69/73/69 70/74/70 68/71/68 
f 69/73/69 71/75/71 72/76/72 70/74/70 
f 71/75/71 73/77/73 74/78/74 72/76/72 
f 73/77/73 75/79/75 76/80/76 74/78/74 
f 75/79/75 77/81/77 78/82/78 76/80/76 
f 77/81/77 79/83/79 80/84/80 78/82/78 
f 79/83/79 41/43/41 44/46/44 80/84/80 
f 81/85/81 82/86/82 83/87/83 84/88/84 
f 85/89/85 86/90/86 82/86/82 81/85/81 
f 87/91/87 88/92/88 86/90/86 85/89/85 
f 89/93/89 90/94/90 88/92/88 87/91/87 
f 91/95/91 92/96/92 90/94/90 89/93/89 
f 93/97/93 94/98/94 92/96/92 91/95/91 
f 95/99/95 96/100/96 94/98/94 93/97/93 
f 97/101/97 98/102/98 96/100/96 95/99/95 
f 99/103/99 100/104/100 98/102/98 97/101/97 
f 101/105/101 102/106/102 100/104/100 99/103/99 
f 103/107/103 104/108/104 102/106/102 101/105/101 
f 105/109/105 106/110/106 104/108/104 103/107/103 
f 107/111/107 108/112/108 106/113/106 105/114/105 
f 109/115/109 110/116/110 108/112/108 107/111/107 
f 111/117/111 112/118/112 110/116/110 109/115/109 
f 113/119/113 114/120/114 112/118/112 111/117/111 
f 115/121/115 116/122/116 114/120/114 113/119/113 
f 117/123/117 118/124/118 116/122/116 115/121/115 
f 119/125/119 120/126/120 118/124/118 117/123/117 
f 84/88/84 83/87/83 120/126/120 119/125/119 
f 82/86/82 121/127/121 122/128/122 83/87/83 
f 86/90/86 123/129/123 121/127/121 82/86/82 
f 88/92/88 124/130/124 123/129/123 86/90/86 
f 90/94/90 125/131/125 124/130/124 88/92/88 
f 92/96/92 126/132/126 125/131/125 90/94/90 
f 94/98/94 127/133/127 126/132/126 92/96/92 
f 96/100/96 128/134/128 127/133/127 94/98/94 
f 98/102/98 129/135/129 128/134/128 96/100/96 
f 100/104/100 130/136/130 129/135/129 98/102/98 
f 102/106/102 131/137/131 130/136/130 100/104/100 
f 104/108/104 132/138/132 131/137/131 102/106/102 
f 106/110/106 133/139/133 132/138/132 104/108/104 
f 108/112/108 134/140/134 133/141/133 106/113/106 
f 110/116/110 135/142/135 134/140/134 108/112/108 
f 112/118/112 136/143/136 135/142/135 110/116/110 
f 114/120/114 137/144/137 136/143/136 112/118/112 
f 116/122/116 138/145/138 137/144/137 114/120/114 
f 118/124/118 139/146/139 138/145/138 116/122/116 
f 120/126/120 140/147/140 139/146/139 118/124/118 
f 83/87/83 122/128/122 140/147/140 120/126/120 
f 43/45/43 81/85/81 84/88/84 44/46/44 
f 46/48/46 85/89/85 81/85/81 43/45/43 
f 48/50/48 87/91/87 85/89/85 46/48/46 
f 50/52/50 89/93/89 87/91/87 48/50/48 
f 52/54/52 91/95/91 89/93/89 50/52/50 
f 54/56/54 93/97/93 91/95/91 52/54/52 
f 56/58/56 95/99/95 93/97/93 54/56/54 
f 58/60/58 97/101/97 95/99/95 56/58/56 
f 60/62/60 99/103/99 97/101/97 58/60/58 
f 62/64/62 101/105/101 99/103/99 60/62/60 
f 64/66/64 103/107/103 101/105/101 62/64/62 
f 66/68/66 105/109/105 103/107/103 64/66/64 
f 68/71/68 107/111/107 105/114/105 66/72/66 
f 70/74/70 109/115/109 107/111/107 68/71/68 
f 72/76/72 111/117/111 109/115/109 70/74/70 
f 74/78/74 113/119/113 111/117/111 72/76/72 
f 76/80/76 115/121/115 113/119/113 74/78/74 
f 78/82/78 117/123/117 115/121/115 76/80/76 
f 80/84/80 119/125/119 117/123/117 78/82/78 
f 44/46/44 84/88/84 119/125/119 80/84/80 
f 141/148/141 142/149/142 143/150/143 144/151/144 
f 145/152/145 146/153/146 142/149/142 141/148/141 
f 147/154/147 148/155/148 146/153/146 145/152/145 
f 149/156/149 150/157/150 148/155/148 147/154/147 
f 151/158/151 152/159/152 150/157/150 149/156/149 
f 153/160/153 154/161/154 152/159/152 151/158/151 
f 155/162/155 156/163/156 154/161/154 153/160/153 
f 157/164/157 158/165/158 156/163/156 155/162/155 
f 159/166/159 160/167/160 158/165/158 157/164/157 
f 161/168/161 162/169/162 160/167/160 159/166/159 
f 163/170/163 164/171/164 162/169/162 161/168/161 
f 165/172/165 166/173/166 164/171/164 163/170/163 
f 167/174/167 168/175/168 166/176/166 165/177/165 
f 169/178/169 170/179/170 168/175/168 167/174/167 
f 171/180/171 172/181/172 170/179/170 169/178/169 
f 173/182/173 174/183/174 172/181/172 171/180/171 
f 175/184/175 176/185/176 174/183/174 173/182/173 
f 177/186/177 178/187/178 176/185/176 175/184/175 
f 179/188/179 180/189/180 178/187/178 177/186/177 
f 144/151/144 143/150/143 180/189/180 179/188/179 
f 142/149/142 42/44/42 41/43/41 143/150/143 
f 146/153/146 45/47/45 42/44/42 142/149/142 
f 148/155/148 47/49/47 45/47/45 146/153/146 
f 150/157/150 49/51/49 47/49/47 148/155/148 
f 152/159/152 51/53/51 49/51/49 150/157/150 
f 154/161/154 53/55/53 51/53/51 152/159/152 
f 156/163/156 55/57/55 53/55/53 154/161/154 
f 158/165/158 57/59/57 55/57/55 156/163/156 
f 160/167/160 59/61/59 57/59/57 158/165/158 
f 162/169/162 61/63/61 59/61/59 160/167/160 
f 164/171/164 63/65/63 61/63/61 162/169/162 
f 166/173/166 65/67/65 63/65/63 164/171/164 
f 168/175/168 67/70/67 65/69/65 166/176/166 
f 170/179/170 69/73/69 67/70/67 168/175/168 
f 172/181/172 71/75/71 69/73/69 170/179/170 
f 174/183/174 73/77/73 71/75/71 172/181/172 
f 176/185/176 75/79/75 73/77/73 174/183/174 
f 178/187/178 77/81/77 75/79/75 176/185/176 
f 180/189/180 79/83/79 77/81/77 178/187/178 
f 143/150/143 41/43/41 79/83/79 180/189/180 
f 3/3/3 141/148/141 144/151/144 4/4/4 
f 6/6/6 145/152/145 141/148/141 3/3/3 
f 8/8/8 147/154/147 145/152/145 6/6/6 
f 10/10/10 149/156/149 147/154/147 8/8/8 
f 12/12/12 151/158/151 149/156/149 10/10/10 
f 14/14/14 153/160/153 151/158/151 12/12/12 
f 16/16/16 155/162/155 153/160/153 14/14/14 
f 18/18/18 157/164/157 155/162/155 16/16/16 
f 20/20/20 159/166/159 157/164/157 18/18/18 
f 22/22/22 161/168/161 159/166/159 20/20/20 
f 24/24/24 163/170/163 161/168/161 22/22/22 
f 26/26/26 165/172/165 163/170/163 24/24/24 
f 28/29/28 167/174/167 165/177/165 26/30/26 
f 30/32/30 169/178/169 167/174/167 28/29/28 
f 32/34/32 171/180/171 169/178/169 30/32/30 
f 34/36/34 173/182/173 171/180/171 32/34/32 
f 36/38/36 175/184/175 173/182/173 34/36/34 
f 38/40/38 177/186/177 175/184/175 36/38/36 
f 40/42/40 179/188/179 177/186/177 38/40/38 
f 4/4/4 144/151/144 179/188/179 40/42/40 
# 160 polygons

