#File written by LIBRIZOMUV. Compilation :Apr 19 2018,20:32:09
mtllib Circle:mtl
#begin vertices
v 33.3529 -5.7446 3.8151
v 33.3527 5.7447 3.8158
v 29.7133 5.7197 16.9088
v 29.7133 -5.7197 16.9088
v 0.4334 -5.7188 33.8122
v 0.4337 5.7188 33.8122
v -16.4727 5.7188 29.2821
v -16.4727 -5.7188 29.2821
v -28.8486 5.7188 16.9061
v -28.8486 -5.7188 16.9061
v 17.3396 5.7188 29.2822
v 17.3396 -5.7188 29.2822
v -33.3786 -5.7188 0.0001
v -33.3786 5.7188 -0.0002
v -28.8486 5.7188 -16.9062
v -28.8488 -5.7188 -16.9058
v -16.4727 5.7188 -29.2821
v -16.4723 -5.7188 -29.2823
v 0.4336 5.7188 -33.8122
v 0.4333 -5.7188 -33.8122
v 17.3394 5.7188 -29.2823
v 17.3398 -5.7188 -29.2821
v 29.7133 5.7197 -16.9087
v 29.7133 -5.7197 -16.9087
v 33.3534 5.7447 -3.813
v 33.3537 -5.7446 -3.8119
v 33.379 -5.77 0.0019
v 33.3788 5.7702 0.0017
v 24.7299 -6.0656 14.0275
v 27.669 -6.0656 3.0587
v 27.6694 -6.0656 0.0013
v 27.6697 -6.0656 -3.0561
v 24.7299 -6.0656 -14.0275
v 14.4611 -6.0656 -24.2963
v 0.4336 -6.0656 -28.055
v -13.5939 -6.0656 -24.2963
v -23.8628 -6.0656 -14.0275
v -27.6214 -6.0656 -0
v -23.8628 -6.0656 14.0275
v -13.5939 -6.0656 24.2963
v 0.4336 -6.0656 28.055
v 14.461 -6.0656 24.2963
v 27.6688 6.0656 3.0594
v 24.7299 6.0656 14.0275
v 14.461 6.0656 24.2963
v 0.4336 6.0656 28.055
v -13.5939 6.0656 24.2963
v -23.8628 6.0656 14.0275
v -27.6214 6.0656 -0
v -23.8628 6.0656 -14.0275
v -13.5939 6.0656 -24.2963
v 0.4336 6.0656 -28.055
v 14.4611 6.0656 -24.2963
v 24.7299 6.0656 -14.0275
v 27.6694 6.0656 -3.0571
v 27.6691 6.0656 0.0011
v 29.06 5.0656 16.5275
v 32.626 5.0656 3.7123
v 32.6262 -5.0655 3.7116
v 29.06 -5.0656 16.5275
v -16.0941 5.0656 28.6264
v 0.4337 5.0656 33.055
v 0.4334 -5.0656 33.055
v -16.0941 -5.0656 28.6264
v -28.1929 5.0656 16.5275
v -28.1929 -5.0656 16.5275
v 16.961 5.0656 28.6265
v 16.9611 -5.0656 28.6265
v -28.1928 5.0656 -16.5276
v -32.6214 5.0656 -0.0002
v -32.6214 -5.0656 0.0001
v -28.1931 -5.0656 -16.5273
v -16.0941 5.0656 -28.6264
v -16.0937 -5.0656 -28.6266
v 0.4336 5.0656 -33.055
v 0.4333 -5.0656 -33.055
v 16.9608 5.0656 -28.6266
v 16.9612 -5.0656 -28.6264
v 29.0601 5.0656 -16.5274
v 29.0601 -5.0656 -16.5274
v 32.6267 5.0656 -3.7095
v 32.6269 -5.0655 -3.7084
v 32.6691 5.0657 0.0016
v 32.6693 -5.0655 0.0018
v 27.669 -5.0656 3.0587
v 24.7299 -5.0656 14.0275
v 27.6693 -5.0656 0.0013
v 27.6697 -5.0656 -3.0561
v 24.7299 -5.0656 -14.0275
v 14.4611 -5.0656 -24.2963
v 0.4336 -5.0656 -28.055
v -13.5939 -5.0656 -24.2963
v -23.8628 -5.0656 -14.0275
v -27.6214 -5.0656 -0
v -23.8628 -5.0656 14.0275
v -13.5939 -5.0656 24.2963
v 0.4336 -5.0656 28.055
v 14.4611 -5.0656 24.2963
v 24.7299 5.0656 14.0275
v 27.6688 5.0656 3.0594
v 14.461 5.0656 24.2963
v 0.4336 5.0656 28.055
v -13.5939 5.0656 24.2963
v -23.8628 5.0656 14.0275
v -27.6214 5.0656 -0
v -23.8628 5.0656 -14.0275
v -13.5939 5.0656 -24.2963
v 0.4336 5.0656 -28.055
v 14.4611 5.0656 -24.2963
v 24.7299 5.0656 -14.0275
v 27.6694 5.0656 -3.0571
v 27.6691 5.0656 0.0011
#end vertices

#begin 135 textures vertices 
vt 0.09054986 0.64591 0
vt 0.0315354 0.6465257 0
vt 0.0328865 0.5818601 0
vt 0.09073917 0.5818785 0
vt 0.09131479 0.4174969 0
vt 0.03323475 0.4170821 0
vt 0.03395763 0.3348719 0
vt 0.09205805 0.335617 0
vt 0.03529421 0.2526168 0
vt 0.09332839 0.2537446 0
vt 0.03302133 0.4992697 0
vt 0.09098099 0.4994833 0
vt 0.09522212 0.171777 0
vt 0.03744384 0.1702847 0
vt 0.04045782 0.08745148 0
vt 0.09772928 0.08923723 0
vt 0.04012853 0.001953125 0
vt 0.100674 0.002972826 0
vt 0.03984019 0.9118131 0
vt 0.09709243 0.910784 0
vt 0.03741765 0.829263 0
vt 0.09507796 0.8278396 0
vt 0.03524874 0.7466228 0
vt 0.09302997 0.7452257 0
vt 0.03245962 0.6821726 0
vt 0.09154933 0.6810587 0
vt 0.09132828 0.6634741 0
vt 0.031409 0.6643868 0
vt 0.1191462 0.5812101 0
vt 0.1197677 0.6447594 0
vt 0.1201116 0.6629952 0
vt 0.1200787 0.6814903 0
vt 0.1210676 0.7459979 0
vt 0.122982 0.827418 0
vt 0.1254199 0.9090307 0
vt 0.128449 0.01351796 0
vt 0.1253858 0.09133241 0
vt 0.1231131 0.1729473 0
vt 0.1213539 0.2546575 0
vt 0.1201194 0.3363391 0
vt 0.1193669 0.4180438 0
vt 0.1190544 0.4997879 0
vt 0.002995575 0.6454947 0
vt 0.004983186 0.580258 0
vt 0.005065062 0.4987265 0
vt 0.005221071 0.4165358 0
vt 0.005938686 0.3341601 0
vt 0.007290077 0.2516996 0
vt 0.009435569 0.1693088 0
vt 0.01217416 0.08784727 0
vt 0.01065399 0.0109917 0
vt 0.0122559 0.9111191 0
vt 0.009483724 0.8296795 0
vt 0.007120889 0.7481678 0
vt 0.003061468 0.6839272 0
vt 0.001953125 0.6648254 0
vt 0.2001566 0.581103 0
vt 0.2020795 0.6448866 0
vt 0.150165 0.6453824 0
vt 0.1488863 0.5815687 0
vt 0.2009578 0.3370669 0
vt 0.2001801 0.418276 0
vt 0.1487276 0.4179608 0
vt 0.1494916 0.3364345 0
vt 0.2021094 0.2559048 0
vt 0.1506939 0.2549457 0
vt 0.1997963 0.4995011 0
vt 0.148436 0.4995834 0
vt 0.2054288 0.09348736 0
vt 0.2035718 0.1748106 0
vt 0.1523425 0.1734396 0
vt 0.1545741 0.09162672 0
vt 0.2113007 0.009879707 0
vt 0.1580483 0.006923986 0
vt 0.2058479 0.9057861 0
vt 0.155114 0.9083285 0
vt 0.2033075 0.8247411 0
vt 0.1521764 0.8262745 0
vt 0.2016743 0.7433531 0
vt 0.150435 0.7442061 0
vt 0.2020489 0.6797221 0
vt 0.1499809 0.6802275 0
vt 0.2024365 0.662332 0
vt 0.149903 0.6628008 0
vt 0.1247845 0.6447103 0
vt 0.1243026 0.5811853 0
vt 0.1248189 0.662917 0
vt 0.1251719 0.6814312 0
vt 0.1261973 0.745889 0
vt 0.1280446 0.8272677 0
vt 0.1305621 0.9088234 0
vt 0.1335625 0.9859526 0
vt 0.1305313 0.09153735 0
vt 0.1281725 0.1730855 0
vt 0.1264272 0.2547566 0
vt 0.1251985 0.3364044 0
vt 0.1244441 0.4180775 0
vt 0.1241364 0.49979 0
vt 0.2243974 0.5796015 0
vt 0.2269548 0.6435804 0
vt 0.224075 0.499135 0
vt 0.2245062 0.4181547 0
vt 0.2252944 0.3370828 0
vt 0.226442 0.2560515 0
vt 0.2279008 0.1752231 0
vt 0.2298987 0.09525001 0
vt 0.2361306 0.01924884 0
vt 0.2297777 0.9037504 0
vt 0.2275627 0.823846 0
vt 0.2261342 0.7437077 0
vt 0.2276445 0.6804645 0
vt 0.2281118 0.6620935 0
vt 0.2295882 0.4181911 0
vt 0.03918028 0.9980469 0
vt 0.2303762 0.3371411 0
vt 0.09963282 0.9964387 0
vt 0.1285716 0.986188 0
vt 0.2291574 0.4991357 0
vt 0.2122155 0.989865 0
vt 0.2294807 0.5795088 0
vt 0.2315234 0.2561308 0
vt 0.2329795 0.1753324 0
vt 0.2349752 0.09553199 0
vt 0.2411947 0.01968051 0
vt 0.2348533 0.903461 0
vt 0.2326426 0.8237334 0
vt 0.2312195 0.7437101 0
vt 0.2327313 0.6805252 0
vt 0.2331513 0.6619889 0
vt 0.2320365 0.6434159 0
vt 0.1334506 0.01374488 0
vt 0.2411947 0.9797753 0
vt 0.01086156 0.9885951 0
vt 0.2361365 0.9802167 0
vt 0.1591036 0.9924951 0
#end 135 textures vertices 

#begin 74 normals 
vn 0.9904 0 0.1382
vn 0.8638 0 0.5039
vn -0 -0 1
vn 0 0 1
vn -0.5 0 0.866
vn -0.5 -0 0.866
vn -0.866 -0 0.5
vn -0.866 0 0.5
vn 0.5 -0 0.866
vn -1 0 0
vn -1 -0 -0
vn -0.866 -0 -0.5
vn -0.5 -0 -0.866
vn 0 0 -1
vn -0 -0 -1
vn 0.5 0 -0.866
vn 0.5 -0 -0.866
vn 0.8638 0 -0.5039
vn 0.8638 -0 -0.5039
vn 0.9904 0 -0.1381
vn 1 0 0.0001
vn 0.0568 -0.9983 0.0166
vn 0.0538 -0.9985 0.0039
vn 0.0538 -0.9985 -0.0039
vn 0.0568 -0.9983 -0.0166
vn 0.0439 -0.9981 -0.044
vn 0.0161 -0.9981 -0.0601
vn -0.0161 -0.9981 -0.0601
vn -0.044 -0.9981 -0.044
vn -0.0601 -0.9981 -0.0161
vn -0.0601 -0.9981 0.0161
vn -0.044 -0.9981 0.044
vn -0.0161 -0.9981 0.0601
vn 0.0161 -0.9981 0.0601
vn 0.0439 -0.9981 0.044
vn 0.0567 0.9983 0.0166
vn 0.0439 0.9981 0.044
vn 0.0161 0.9981 0.0601
vn -0.0161 0.9981 0.0601
vn -0.044 0.9981 0.044
vn -0.0601 0.9981 0.0161
vn -0.0601 0.9981 -0.0161
vn -0.044 0.9981 -0.044
vn -0.0161 0.9981 -0.0601
vn 0.0161 0.9981 -0.0601
vn 0.0439 0.9981 -0.044
vn 0.0567 0.9983 -0.0166
vn 0.0537 0.9985 -0.0039
vn 0.0537 0.9985 0.0039
vn -0.8636 -0 -0.5041
vn -0.99 -0 -0.141
vn 0.866 0 -0.5
vn 0.866 -0 -0.5
vn -0.5 0 -0.866
vn 0.866 0 0.5
vn 1 0 0
vn 1 -0 -0
vn 0.5 0 0.866
vn -0.8636 -0 0.5041
vn -0.8636 0 0.5041
vn -0.99 -0 0.1409
vn -1 -0 -0.0001
vn -0 1 0
vn -0 1 -0
vn 0 1 -0
vn 0 -1 -0
vn -0 -1 0
vn 0 -1 0
vn -0 -1 -0
vn -0.9914 -0 -0.1306
vn -0.9915 -0 0.1305
vn -0 0 1
vn 0.866 -0 0.5
vn 0 -0 -1
#end 74 normals 

#begin 112 faces
usemtl AM94_044_obj_0004
g Circle
s 1
f 1/1/1 2/2/1 3/3/2 4/4/2 
f 5/5/3 6/6/4 7/7/5 8/8/6 
f 8/8/6 7/7/5 9/9/7 10/10/8 
f 4/4/2 3/3/2 11/11/9 12/12/9 
f 12/12/9 11/11/9 6/6/4 5/5/3 
f 13/13/10 14/14/11 15/15/12 16/16/12 
f 16/16/12 15/15/12 17/17/13 18/18/13 
f 18/116/13 17/114/13 19/19/14 20/20/15 
f 10/10/8 9/9/7 14/14/11 13/13/10 
f 20/20/15 19/19/14 21/21/16 22/22/17 
f 22/22/17 21/21/16 23/23/18 24/24/19 
f 24/24/19 23/23/18 25/25/20 26/26/20 
f 27/27/21 28/28/21 2/2/1 1/1/1 
f 26/26/20 25/25/20 28/28/21 27/27/21 
s off
f 29/29/22 30/30/22 1/1/22 4/4/22 
f 30/30/23 31/31/23 27/27/23 1/1/23 
f 31/31/24 32/32/24 26/26/24 27/27/24 
f 32/32/25 33/33/25 24/24/25 26/26/25 
f 33/33/26 34/34/26 22/22/26 24/24/26 
f 34/34/27 35/35/27 20/20/27 22/22/27 
f 35/35/28 36/117/28 18/116/28 20/20/28 
f 36/36/29 37/37/29 16/16/29 18/18/29 
f 37/37/30 38/38/30 13/13/30 16/16/30 
f 38/38/31 39/39/31 10/10/31 13/13/31 
f 39/39/32 40/40/32 8/8/32 10/10/32 
f 40/40/33 41/41/33 5/5/33 8/8/33 
f 41/41/34 42/42/34 12/12/34 5/5/34 
f 42/42/35 29/29/35 4/4/35 12/12/35 
f 43/43/36 44/44/36 3/3/36 2/2/36 
f 44/44/37 45/45/37 11/11/37 3/3/37 
f 45/45/38 46/46/38 6/6/38 11/11/38 
f 46/46/39 47/47/39 7/7/39 6/6/39 
f 47/47/40 48/48/40 9/9/40 7/7/40 
f 48/48/41 49/49/41 14/14/41 9/9/41 
f 49/49/42 50/50/42 15/15/42 14/14/42 
f 50/50/43 51/51/43 17/17/43 15/15/43 
f 51/133/44 52/52/44 19/19/44 17/114/44 
f 52/52/45 53/53/45 21/21/45 19/19/45 
f 53/53/46 54/54/46 23/23/46 21/21/46 
f 54/54/47 55/55/47 25/25/47 23/23/47 
f 55/55/48 56/56/48 28/28/48 25/25/48 
f 56/56/49 43/43/49 2/2/49 28/28/49 
s 1
f 57/57/50 58/58/51 59/59/51 60/60/50 
f 61/61/17 62/62/15 63/63/14 64/64/16 
f 65/65/52 61/61/17 64/64/16 66/66/53 
f 67/67/13 57/57/50 60/60/50 68/68/54 
f 62/62/15 67/67/13 68/68/54 63/63/14 
f 69/69/55 70/70/56 71/71/57 72/72/55 
f 73/73/58 69/69/55 72/72/55 74/74/58 
f 75/75/3 73/119/58 74/135/58 76/76/4 
f 70/70/56 65/65/52 66/66/53 71/71/57 
f 77/77/6 75/75/3 76/76/4 78/78/5 
f 79/79/59 77/77/6 78/78/5 80/80/60 
f 81/81/61 79/79/59 80/80/60 82/82/61 
f 58/58/51 83/83/62 84/84/62 59/59/51 
f 83/83/62 81/81/61 82/82/61 84/84/62 
s off
f 59/59/63 85/85/63 86/86/63 60/60/63 
f 84/84/63 87/87/63 85/85/63 59/59/63 
f 82/82/64 88/88/64 87/87/64 84/84/64 
f 80/80/63 89/89/63 88/88/63 82/82/63 
f 78/78/64 90/90/64 89/89/64 80/80/64 
f 76/76/64 91/91/64 90/90/64 78/78/64 
f 74/135/64 92/92/64 91/91/64 76/76/64 
f 72/72/64 93/93/64 92/131/64 74/74/64 
f 71/71/63 94/94/63 93/93/63 72/72/63 
f 66/66/64 95/95/64 94/94/64 71/71/64 
f 64/64/64 96/96/64 95/95/64 66/66/64 
f 63/63/64 97/97/64 96/96/64 64/64/64 
f 68/68/64 98/98/64 97/97/64 63/63/64 
f 60/60/65 86/86/65 98/98/65 68/68/65 
f 57/57/66 99/99/66 100/100/66 58/58/66 
f 67/67/67 101/101/67 99/99/67 57/57/67 
f 62/62/68 102/102/68 101/101/68 67/67/68 
f 61/61/68 103/103/68 102/102/68 62/62/68 
f 65/65/68 104/104/68 103/103/68 61/61/68 
f 70/70/68 105/105/68 104/104/68 65/65/68 
f 69/69/68 106/106/68 105/105/68 70/70/68 
f 73/73/66 107/107/66 106/106/66 69/69/66 
f 75/75/68 108/108/68 107/134/68 73/119/68 
f 77/77/69 109/109/69 108/108/69 75/75/69 
f 79/79/68 110/110/68 109/109/68 77/77/68 
f 81/81/68 111/111/68 110/110/68 79/79/68 
f 83/83/68 112/112/68 111/111/68 81/81/68 
f 58/58/66 100/100/66 112/112/66 83/83/66 
s 1
f 30/30/70 29/29/12 86/86/12 85/85/70 
f 31/31/62 30/30/70 85/85/70 87/87/62 
f 32/32/71 31/31/62 87/87/62 88/88/71 
f 33/33/7 32/32/71 88/88/71 89/89/7 
f 34/34/6 33/33/7 89/89/7 90/90/6 
f 35/35/72 34/34/6 90/90/6 91/91/72 
f 36/117/58 35/35/72 91/91/72 92/92/58 
f 37/37/73 36/36/58 92/131/58 93/93/73 
f 38/38/56 37/37/73 93/93/73 94/94/56 
f 39/39/53 38/38/56 94/94/56 95/95/53 
f 40/40/16 39/39/53 95/95/53 96/96/16 
f 41/41/74 40/40/16 96/96/16 97/97/14 
f 42/42/54 41/41/74 97/97/14 98/98/54 
f 29/29/12 42/42/54 98/98/54 86/86/12 
f 44/120/12 43/130/70 100/100/70 99/99/12 
f 45/118/54 44/120/12 99/99/12 101/101/54 
f 46/113/14 45/118/54 101/101/54 102/102/14 
f 47/115/16 46/113/14 102/102/14 103/103/16 
f 48/121/53 47/115/16 103/103/16 104/104/53 
f 49/122/56 48/121/53 104/104/53 105/105/56 
f 50/123/73 49/122/56 105/105/56 106/106/73 
f 51/124/58 50/123/73 106/106/73 107/107/58 
f 52/125/72 51/132/58 107/134/58 108/108/72 
f 53/126/5 52/125/72 108/108/72 109/109/5 
f 54/127/7 53/126/5 109/109/5 110/110/7 
f 55/128/71 54/127/7 110/110/7 111/111/71 
f 56/129/62 55/128/71 111/111/71 112/112/62 
f 43/130/70 56/129/62 112/112/62 100/100/70 
#end 112 faces

#begin properties
#ZOMPROPERTIES_02 table {Mesh table {SymPlane table {Point vector3d 0 0 0  Normal vector3d 1 0 0  Threshold double 0.01 Enabled bool false UPos double 0.5 LocalMode bool false } RootGroup CSubMeshGroup {Children table {Tile_0_0 CSubMeshGroup {Children table {} IslandIDs ints { 0 } BBoxUV box3d 0 0 0 0 0 0 BBox3D box3d 0 0 0 0 0 0 AreaUV double 0 Area3D double 0 IsRoot bool false TopoStable table {Selected bool false Box box3d 0 1 0 1 0 1 U int 0 V int 0 NU int 0 NV int 0 Tiling vector3d 50 50 1  TileRatioMode string "1:1" } IsTile bool true } } IslandIDs ints { } BBoxUV box3d 0 0 0 0 0 0 BBox3D box3d 0 0 0 0 0 0 AreaUV double 0 Area3D double 0 IsRoot bool true TopoStable table {Selected bool false Box box3d 0 1 0 1 0 1 U int 0 V int 0 NU int 1 NV int 1 Tiling vector3d 50 50 1  TileRatioMode string "1:1" Pack table {Rotate table {Mode int 2 Min double 0 Max double 180 Step double 0 } SpacingSize double 0.00390625 MarginSize double 0.001953125 Resolution int 200 Scaling table {Mode int 0 } LayoutScalingMode int 2 MaxMutations int 1 } } IsTile bool false } Maps table {Density table {PrimType string "Polygon" Size int 1 DefaultValue double 1 ScaleType string "Log" MinValue double 0.1 MaxValue double 4 Data doubles { r 112 1 } } Pin table {PrimType string "Vertex" Size int 1 DefaultValue double 0 ScaleType string "Normalized" MinValue double 0 MaxValue double 1 Data doubles { r 135 0 } } Protect table {PrimType string "Vertex" Size int 1 DefaultValue double 0 ScaleType string "Normalized" MinValue double -1 MaxValue double 1 Data doubles { r 135 0 } } } } }
#end properties

#begin 0 fatal error vertex (that RizomUV cannot handle)
#end 0 fatal error vertex (that RizomUV cannot handle)

#begin 0 error vertex
#end 0 error vertex
